<?xml version="1.0" encoding="iso-8859-1"?>
<!-- Generator: Adobe Illustrator 29.1.0, SVG Export Plug-In . SVG Version: 9.03 Build 55587)  -->
<svg version="1.1" xmlns="http://www.w3.org/2000/svg" xmlns:xlink="http://www.w3.org/1999/xlink" x="0px" y="0px"
	 viewBox="0 0 640 480" style="enable-background:new 0 0 640 480;" xml:space="preserve">
<g id="Calque_1">
</g>
<g id="Calque_2">
	<g>
		<path style="fill:none;" d="M406.939,51.372c-1.246,2.888-2.707,4.439-4.175,5.991c-1.893,2.004-2.811,2.275-3.542,2.178
			c-1.357-0.181-2.178-1.649-2.359-1.997c-0.07-0.125-0.125-0.257-0.167-0.397c0.751-0.202,1.621-0.564,2.435-1.239
			c0.056-0.042,0.278-0.23,0.564-0.529c-0.271-0.285-0.64-0.584-1.106-0.828c-0.223-0.118-1.28-0.647-2.637-0.459
			c-0.195,0.028-0.675,0.188-1.322,0.431c-2.261,0.849-6.568,2.79-8.203,4.383c-0.237,0.23-0.501,0.543-1.002,0.814
			c-1.538,0.842-3.263,0.536-3.514,0.494c0.021,1.301-0.014,2.922-0.007,4.571c-0.821,0.619-1.614,1.155-2.373,1.607
			c-0.751,0.452-1.468,0.835-2.136,1.148c-1.016,0.48-1.92,0.828-2.672,1.071c-0.223,0.07-0.431,0.139-0.626,0.195
			c-1.002,0.292-1.858,0.473-2.561,0.577c-0.988,0.146-1.677,0.153-2.025,0.146c-0.181,0-0.362-0.007-0.543-0.014
			c-1.239-0.063-2.345-0.292-3.277-0.564c-0.209-0.946-0.452-2.254-0.591-3.785c-0.264-2.839-0.077-5.239,0.181-6.993
			c-1.475,1.621-4.21,3.451-6.081,2.818c-2.825-0.96-3.305-4.286-3.361-4.724c-0.271-2.136,0.863-2.581,1.545-5.532
			c0.696-2.992-0.243-3.528-0.271-9.985c-0.014-2.943-0.021-4.418,0.362-5.629c1.016-3.201,3.361-5.058,5.991-7.076
			c4.996-3.841,9.804-5.309,10.889-5.629c2.38-0.696,7.354-2.087,13.707-0.995c2.435,0.418,9.059,1.649,14.521,7.257
			c1.482,1.531,4.37,4.571,5.622,9.532C409.799,44.525,407.669,49.667,406.939,51.372z"/>
		<path id="menton_00000113351484536069735850000004517527425271323830_" style="fill:none;" d="M390.964,64.529
			c-0.452,2.491-0.543,4.724-0.48,6.568c-0.007,0.007-0.007,0.021-0.007,0.035c-0.021,0.369,0.445,4.112-0.508,5.378
			c-0.8,1.065-1.663,0.905-4.084,1.997c-1.927,0.87-3.131,1.886-4.996,3.451c-2.804,2.359-3.625,2.992-5.26,4.265
			c-0.424,0.327-1.35,1.023-2.359,0.814c-0.334-0.07-0.584-0.216-0.911-0.452c-0.849-0.612-1.941-1.412-2.63-2.992
			c-0.16-0.376-0.724-1.753-0.473-3.542c0.111-0.821,0.362-1.475,0.564-1.906c0.675-0.077,1.406-0.174,2.185-0.32
			c0.682-0.125,1.405-0.278,2.157-0.473c0.452-0.111,0.911-0.244,1.378-0.39c0.598-0.188,1.176-0.383,1.726-0.591
			c0.911-0.341,1.767-0.71,2.547-1.092c0.717-0.341,1.378-0.696,1.983-1.051c0.529-0.299,1.009-0.598,1.454-0.891
			c-0.271-0.932-0.522-1.934-0.724-2.999c-0.021-0.111-0.042-0.23-0.063-0.348c-0.417-2.373-0.557-5.204-0.557-5.204
			c0-1.628-0.007-3.166,0.007-4.446v-0.125c0.452,0.083,0.953,0.118,1.482,0.077c0.445-0.042,1.44-0.139,2.373-0.8
			c0.376-0.264,0.598-0.529,0.661-0.584c1.635-1.593,5.942-3.535,8.203-4.383C393.329,56.799,391.75,60.188,390.964,64.529z"/>
		<path id="nez_00000070814542404178741110000004575290904967436475_" style="fill:none;" d="M375.26,55.094
			c0.09,1.148-0.932,2.47-1.9,2.54c-1.426,0.104-2.554-2.519-3.089-2.268c-0.466,0.223,0.459,2.164-0.362,2.901
			c-0.557,0.508-1.684,0.244-2.359-0.181c-1.315-0.821-1.6-2.686-1.273-3.994c0.237-0.946,0.689-1.148,1.454-2.268
			c1.865-2.721,1.719-5.191,2.268-5.17c0.536,0.014,0.111,2.373,1.635,4.627C373.137,53.508,375.141,53.564,375.26,55.094z"/>
		<path style="fill:none;" d="M377.347,56.089c0.835,2.31,2.554,3.841,4.564,4.126"/>
		<path style="fill:none;" d="M399.696,55.38c0.814-0.856,2.136-2.609,1.614-4.55c-0.125-0.473-0.383-1.44-1.183-1.816
			c-2.24-1.058-6.033,3.883-6.986,3.18c-0.515-0.383,0.633-1.802,0.814-3.994c0.411-4.926-4.557-7.508-3.354-10.527
			c0.557-1.399,2.066-2.011,2.721-2.275c1.649-0.661,3.994-0.689,5.358,0.55c0.856,0.779,0.487,1.294,1.816,2.992
			c0.48,0.619,1.078,1.371,2.087,1.997c1.204,0.751,2.394,0.946,3.082,1.002"/>
		<g>
			
				<ellipse transform="matrix(0.1419 -0.9899 0.9899 0.1419 282.1114 417.9127)" style="fill:none;" cx="382.091" cy="46.246" rx="5.159" ry="3.68"/>
			
				<ellipse transform="matrix(0.0513 -0.9987 0.9987 0.0513 298.0878 408.4935)" style="fill:none;" cx="364.047" cy="47.354" rx="4.579" ry="2.679"/>
		</g>
		<g>
			<circle style="fill:none;" cx="382.534" cy="46.246" r="0.442"/>
			<circle style="fill:none;" cx="364.26" cy="47.343" r="0.442"/>
		</g>
	</g>
</g>
</svg>
